<mxfile host="app.diagrams.net" modified="2024-02-21T16:44:57.021Z" agent="Mozilla/5.0 (Macintosh; Intel Mac OS X 10_15_7) AppleWebKit/605.1.15 (KHTML, like Gecko) Version/17.0 Safari/605.1.15" etag="UVWWzfnbHFJZMoW8bAby" version="23.1.5" type="github">
  <diagram name="Page-1" id="yzQCW2B471t5d0-G7tlK">
    <mxGraphModel dx="1366" dy="923" grid="1" gridSize="10" guides="1" tooltips="1" connect="1" arrows="1" fold="1" page="1" pageScale="1" pageWidth="850" pageHeight="1100" math="0" shadow="0">
      <root>
        <mxCell id="0" />
        <mxCell id="1" parent="0" />
        <mxCell id="KtYd76TN2WNFIELzgT9k-1" value="DB" style="shape=cylinder3;whiteSpace=wrap;html=1;boundedLbl=1;backgroundOutline=1;size=15;strokeWidth=4;" vertex="1" parent="1">
          <mxGeometry x="580" y="610" width="76.25" height="70" as="geometry" />
        </mxCell>
        <mxCell id="KtYd76TN2WNFIELzgT9k-50" value="" style="group" vertex="1" connectable="0" parent="1">
          <mxGeometry x="270" y="566" width="128.45" height="472" as="geometry" />
        </mxCell>
        <mxCell id="KtYd76TN2WNFIELzgT9k-114" value="" style="rounded=1;whiteSpace=wrap;html=1;dashed=1;dashPattern=8 8;fillColor=#eeeeee;strokeColor=#36393d;opacity=50;" vertex="1" parent="KtYd76TN2WNFIELzgT9k-50">
          <mxGeometry x="-28.44" y="-36" width="156.89" height="296" as="geometry" />
        </mxCell>
        <mxCell id="KtYd76TN2WNFIELzgT9k-27" value="" style="sketch=0;pointerEvents=1;shadow=0;dashed=0;html=1;strokeColor=none;labelPosition=center;verticalLabelPosition=bottom;verticalAlign=top;outlineConnect=0;align=center;shape=mxgraph.office.servers.physical_host;fillColor=#000000;" vertex="1" parent="KtYd76TN2WNFIELzgT9k-50">
          <mxGeometry x="6.5" width="27" height="52" as="geometry" />
        </mxCell>
        <mxCell id="KtYd76TN2WNFIELzgT9k-28" value="" style="sketch=0;pointerEvents=1;shadow=0;dashed=0;html=1;strokeColor=none;labelPosition=center;verticalLabelPosition=bottom;verticalAlign=top;outlineConnect=0;align=center;shape=mxgraph.office.servers.physical_host;fillColor=#000000;" vertex="1" parent="KtYd76TN2WNFIELzgT9k-50">
          <mxGeometry x="36.5" width="27" height="52" as="geometry" />
        </mxCell>
        <mxCell id="KtYd76TN2WNFIELzgT9k-29" value="" style="sketch=0;pointerEvents=1;shadow=0;dashed=0;html=1;strokeColor=none;labelPosition=center;verticalLabelPosition=bottom;verticalAlign=top;outlineConnect=0;align=center;shape=mxgraph.office.servers.physical_host;fillColor=#000000;" vertex="1" parent="KtYd76TN2WNFIELzgT9k-50">
          <mxGeometry x="66.5" width="27" height="52" as="geometry" />
        </mxCell>
        <mxCell id="KtYd76TN2WNFIELzgT9k-43" value="Authentication&lt;br&gt;Service" style="text;html=1;align=center;verticalAlign=middle;resizable=0;points=[];autosize=1;strokeColor=none;fillColor=none;" vertex="1" parent="KtYd76TN2WNFIELzgT9k-50">
          <mxGeometry y="54" width="100" height="40" as="geometry" />
        </mxCell>
        <mxCell id="KtYd76TN2WNFIELzgT9k-52" value="" style="edgeStyle=orthogonalEdgeStyle;orthogonalLoop=1;jettySize=auto;html=1;rounded=1;strokeWidth=1;endArrow=classic;endFill=1;entryX=0.002;entryY=0.285;entryDx=0;entryDy=0;elbow=vertical;entryPerimeter=0;" edge="1" parent="1" source="KtYd76TN2WNFIELzgT9k-2" target="KtYd76TN2WNFIELzgT9k-75">
          <mxGeometry width="80" relative="1" as="geometry">
            <mxPoint x="120" y="730" as="sourcePoint" />
            <mxPoint x="240" y="770" as="targetPoint" />
            <Array as="points">
              <mxPoint x="120" y="750" />
            </Array>
          </mxGeometry>
        </mxCell>
        <mxCell id="KtYd76TN2WNFIELzgT9k-59" value="Dynamic &lt;br&gt;Purpose &lt;br&gt;Classification" style="sketch=0;pointerEvents=1;shadow=0;dashed=0;html=1;strokeColor=none;labelPosition=center;verticalLabelPosition=bottom;verticalAlign=top;align=center;fillColor=#000000;shape=mxgraph.mscae.oms.log_search" vertex="1" parent="1">
          <mxGeometry x="283.75" y="900" width="72.5" height="70" as="geometry" />
        </mxCell>
        <mxCell id="KtYd76TN2WNFIELzgT9k-75" value="API" style="editableCssRules=.*;html=1;shape=image;verticalLabelPosition=bottom;labelBackgroundColor=none;verticalAlign=top;aspect=fixed;imageAspect=0;image=data:image/svg+xml,PHN2ZyB4bWxucz0iaHR0cDovL3d3dy53My5vcmcvMjAwMC9zdmciIHhtbG5zOnY9Imh0dHBzOi8vdmVjdGEuaW8vbmFubyIgd2lkdGg9IjE5Ljk1MDAwMDc2MjkzOTQ1MyIgaGVpZ2h0PSIxMiIgdmlld0JveD0iMCAwIDE5Ljk1MDAwMDc2MjkzOTQ1MyAxMiI+JiN4YTsJPHN0eWxlIHR5cGU9InRleHQvY3NzIj4uc3QwIHsgZmlsbDogcmdiKDAsIDAsIDApOyB9IC5zdDEgeyBmaWxsOiByZ2IoMjYsIDI2LCAyNik7IH0gPC9zdHlsZT4mI3hhOwk8cGF0aCBjbGFzcz0ic3QwIiBkPSJNNiA2bDEgMmg2bDEtMi0xLTJIN3oiIGZpbGw9IiM0Mjg1ZjQiLz4mI3hhOwk8cGF0aCBjbGFzcz0ic3QxIiBkPSJNNy41MSA0SDdMNiA2aDhsLTEtMnoiIGZpbGw9IiNhZWNiZmEiLz4mI3hhOwk8cGF0aCBjbGFzcz0ic3QwIiBkPSJNMTYuOTcgNmwxLjUtMi4yNUwxNiAwaC0zeiIgZmlsbD0iIzQyODVmNCIvPiYjeGE7CTxwYXRoIGNsYXNzPSJzdDEiIGQ9Ik0xNi45NyA2aDBMMTMgMTJoM2wzLjk1LTYtMS40OC0yLjI1eiIgZmlsbD0iI2FlY2JmYSIvPiYjeGE7CTxwYXRoIGNsYXNzPSJzdDAiIGQ9Ik0yLjk4IDZsLTEuNSAyLjI1TDMuOTUgMTJoM3oiIGZpbGw9IiM0Mjg1ZjQiLz4mI3hhOwk8cGF0aCBjbGFzcz0ic3QxIiBkPSJNMi45OCA2aDBsMy45Ny02aC0zTDAgNmwxLjQ4IDIuMjV6IiBmaWxsPSIjYWVjYmZhIi8+JiN4YTs8L3N2Zz4=;" vertex="1" parent="1">
          <mxGeometry x="275" y="734" width="90" height="54" as="geometry" />
        </mxCell>
        <mxCell id="KtYd76TN2WNFIELzgT9k-77" style="edgeStyle=orthogonalEdgeStyle;rounded=1;orthogonalLoop=1;jettySize=auto;html=1;curved=0;" edge="1" parent="1" source="KtYd76TN2WNFIELzgT9k-76" target="KtYd76TN2WNFIELzgT9k-27">
          <mxGeometry relative="1" as="geometry">
            <Array as="points">
              <mxPoint x="210" y="531" />
              <mxPoint x="210" y="600" />
            </Array>
          </mxGeometry>
        </mxCell>
        <mxCell id="KtYd76TN2WNFIELzgT9k-76" value="User&lt;div&gt;&lt;br/&gt;&lt;/div&gt;" style="sketch=0;outlineConnect=0;fontColor=#232F3E;gradientColor=none;fillColor=#232F3D;strokeColor=none;dashed=0;verticalLabelPosition=bottom;verticalAlign=top;align=center;html=1;fontSize=12;fontStyle=0;aspect=fixed;pointerEvents=1;shape=mxgraph.aws4.user;" vertex="1" parent="1">
          <mxGeometry x="40" y="492" width="78" height="78" as="geometry" />
        </mxCell>
        <mxCell id="KtYd76TN2WNFIELzgT9k-2" value="Authenticated&amp;nbsp;&lt;br&gt;User" style="sketch=0;outlineConnect=0;fontColor=#232F3E;gradientColor=none;fillColor=#232F3D;strokeColor=none;dashed=0;verticalLabelPosition=bottom;verticalAlign=top;align=center;html=1;fontSize=12;fontStyle=0;aspect=fixed;pointerEvents=1;shape=mxgraph.aws4.authenticated_user;" vertex="1" parent="1">
          <mxGeometry x="40" y="720" width="78" height="78" as="geometry" />
        </mxCell>
        <mxCell id="KtYd76TN2WNFIELzgT9k-78" style="edgeStyle=orthogonalEdgeStyle;rounded=1;orthogonalLoop=1;jettySize=auto;html=1;curved=0;" edge="1" parent="1" source="KtYd76TN2WNFIELzgT9k-27" target="KtYd76TN2WNFIELzgT9k-2">
          <mxGeometry relative="1" as="geometry">
            <Array as="points">
              <mxPoint x="210" y="600" />
              <mxPoint x="210" y="660" />
              <mxPoint x="79" y="660" />
            </Array>
          </mxGeometry>
        </mxCell>
        <mxCell id="KtYd76TN2WNFIELzgT9k-83" value="Access Rights,&lt;br&gt;Purpose Rights" style="text;html=1;align=center;verticalAlign=middle;whiteSpace=wrap;rounded=0;" vertex="1" parent="1">
          <mxGeometry x="83.11" y="629" width="120" height="30" as="geometry" />
        </mxCell>
        <mxCell id="KtYd76TN2WNFIELzgT9k-85" value="Access Rights,&lt;br&gt;Purpose Rights,&lt;br&gt;Prompt" style="text;html=1;align=center;verticalAlign=middle;whiteSpace=wrap;rounded=0;" vertex="1" parent="1">
          <mxGeometry x="130" y="710" width="120" height="30" as="geometry" />
        </mxCell>
        <mxCell id="KtYd76TN2WNFIELzgT9k-91" value="" style="edgeStyle=orthogonalEdgeStyle;orthogonalLoop=1;jettySize=auto;html=1;rounded=1;strokeWidth=1;endArrow=classic;endFill=1;elbow=vertical;entryX=-0.001;entryY=0.365;entryDx=0;entryDy=0;entryPerimeter=0;exitX=0.384;exitY=0.03;exitDx=0;exitDy=0;exitPerimeter=0;" edge="1" parent="1" source="KtYd76TN2WNFIELzgT9k-75" target="KtYd76TN2WNFIELzgT9k-1">
          <mxGeometry width="80" relative="1" as="geometry">
            <mxPoint x="356.25" y="735.84" as="sourcePoint" />
            <mxPoint x="512.775" y="674.1300000000001" as="targetPoint" />
            <Array as="points">
              <mxPoint x="310" y="734" />
              <mxPoint x="310" y="700" />
              <mxPoint x="440" y="700" />
              <mxPoint x="440" y="636" />
            </Array>
          </mxGeometry>
        </mxCell>
        <mxCell id="KtYd76TN2WNFIELzgT9k-93" value="Access Rights,&lt;br&gt;Purpose Rights,&lt;br&gt;Prompt,&lt;br&gt;&amp;nbsp;Purpose" style="text;html=1;align=center;verticalAlign=middle;whiteSpace=wrap;rounded=0;" vertex="1" parent="1">
          <mxGeometry x="460" y="580" width="120" height="40" as="geometry" />
        </mxCell>
        <mxCell id="KtYd76TN2WNFIELzgT9k-94" value="" style="edgeStyle=orthogonalEdgeStyle;orthogonalLoop=1;jettySize=auto;html=1;rounded=1;strokeWidth=1;endArrow=classic;endFill=1;elbow=vertical;exitX=-0.024;exitY=0.577;exitDx=0;exitDy=0;exitPerimeter=0;entryX=0.611;entryY=0.026;entryDx=0;entryDy=0;entryPerimeter=0;" edge="1" parent="1" source="KtYd76TN2WNFIELzgT9k-1" target="KtYd76TN2WNFIELzgT9k-75">
          <mxGeometry width="80" relative="1" as="geometry">
            <mxPoint x="375" y="745.02" as="sourcePoint" />
            <mxPoint x="370" y="750" as="targetPoint" />
            <Array as="points">
              <mxPoint x="460" y="650" />
              <mxPoint x="460" y="720" />
              <mxPoint x="330" y="720" />
            </Array>
          </mxGeometry>
        </mxCell>
        <mxCell id="KtYd76TN2WNFIELzgT9k-95" value="Data" style="text;html=1;align=center;verticalAlign=middle;whiteSpace=wrap;rounded=0;" vertex="1" parent="1">
          <mxGeometry x="490" y="650" width="60" height="30" as="geometry" />
        </mxCell>
        <mxCell id="KtYd76TN2WNFIELzgT9k-97" value="" style="edgeStyle=orthogonalEdgeStyle;orthogonalLoop=1;jettySize=auto;html=1;rounded=1;strokeWidth=1;endArrow=classic;endFill=1;elbow=vertical;exitX=0;exitY=0.75;exitDx=0;exitDy=0;" edge="1" parent="1" source="KtYd76TN2WNFIELzgT9k-75" target="KtYd76TN2WNFIELzgT9k-2">
          <mxGeometry width="80" relative="1" as="geometry">
            <mxPoint x="100" y="780" as="sourcePoint" />
            <mxPoint x="120" y="750" as="targetPoint" />
            <Array as="points">
              <mxPoint x="170" y="775" />
              <mxPoint x="170" y="775" />
            </Array>
          </mxGeometry>
        </mxCell>
        <mxCell id="KtYd76TN2WNFIELzgT9k-98" value="" style="group" vertex="1" connectable="0" parent="1">
          <mxGeometry x="250" y="820" width="140" height="70" as="geometry" />
        </mxCell>
        <mxCell id="KtYd76TN2WNFIELzgT9k-86" value="" style="edgeStyle=none;orthogonalLoop=1;jettySize=auto;html=1;rounded=0;strokeWidth=1;endArrow=classic;endFill=1;" edge="1" parent="KtYd76TN2WNFIELzgT9k-98">
          <mxGeometry width="80" relative="1" as="geometry">
            <mxPoint x="60" as="sourcePoint" />
            <mxPoint x="60" y="70" as="targetPoint" />
            <Array as="points" />
          </mxGeometry>
        </mxCell>
        <mxCell id="KtYd76TN2WNFIELzgT9k-88" value="" style="edgeStyle=none;orthogonalLoop=1;jettySize=auto;html=1;rounded=0;strokeWidth=1;endArrow=classic;endFill=1;" edge="1" parent="KtYd76TN2WNFIELzgT9k-98">
          <mxGeometry width="80" relative="1" as="geometry">
            <mxPoint x="80.25" y="70" as="sourcePoint" />
            <mxPoint x="80" as="targetPoint" />
            <Array as="points" />
          </mxGeometry>
        </mxCell>
        <mxCell id="KtYd76TN2WNFIELzgT9k-89" value="Prompt" style="text;html=1;align=center;verticalAlign=middle;whiteSpace=wrap;rounded=0;" vertex="1" parent="KtYd76TN2WNFIELzgT9k-98">
          <mxGeometry y="20" width="60" height="30" as="geometry" />
        </mxCell>
        <mxCell id="KtYd76TN2WNFIELzgT9k-90" value="Purpose" style="text;html=1;align=center;verticalAlign=middle;whiteSpace=wrap;rounded=0;" vertex="1" parent="KtYd76TN2WNFIELzgT9k-98">
          <mxGeometry x="80" y="20" width="60" height="30" as="geometry" />
        </mxCell>
        <mxCell id="KtYd76TN2WNFIELzgT9k-108" value="3" style="ellipse;whiteSpace=wrap;html=1;aspect=fixed;" vertex="1" parent="KtYd76TN2WNFIELzgT9k-98">
          <mxGeometry x="55" y="20" width="30" height="30" as="geometry" />
        </mxCell>
        <mxCell id="KtYd76TN2WNFIELzgT9k-100" value="" style="edgeStyle=orthogonalEdgeStyle;orthogonalLoop=1;jettySize=auto;html=1;rounded=1;strokeWidth=1;endArrow=classic;endFill=1;elbow=vertical;exitX=1;exitY=0.25;exitDx=0;exitDy=0;" edge="1" parent="1" source="KtYd76TN2WNFIELzgT9k-75" target="KtYd76TN2WNFIELzgT9k-41">
          <mxGeometry width="80" relative="1" as="geometry">
            <mxPoint x="360" y="905" as="sourcePoint" />
            <mxPoint x="570" y="805" as="targetPoint" />
            <Array as="points">
              <mxPoint x="410" y="747" />
              <mxPoint x="410" y="820" />
            </Array>
          </mxGeometry>
        </mxCell>
        <mxCell id="KtYd76TN2WNFIELzgT9k-101" value="Access Rights,&lt;br&gt;Purpose Rights,&lt;br&gt;Prompt,&lt;br&gt;&amp;nbsp;Purpose,&lt;br&gt;&amp;nbsp;Data" style="text;html=1;align=center;verticalAlign=middle;whiteSpace=wrap;rounded=0;" vertex="1" parent="1">
          <mxGeometry x="450" y="758" width="120" height="40" as="geometry" />
        </mxCell>
        <mxCell id="KtYd76TN2WNFIELzgT9k-102" value="Response" style="text;html=1;align=center;verticalAlign=middle;whiteSpace=wrap;rounded=0;" vertex="1" parent="1">
          <mxGeometry x="480" y="840" width="60" height="30" as="geometry" />
        </mxCell>
        <mxCell id="KtYd76TN2WNFIELzgT9k-103" value="Response" style="text;html=1;align=center;verticalAlign=middle;whiteSpace=wrap;rounded=0;" vertex="1" parent="1">
          <mxGeometry x="160" y="780" width="60" height="30" as="geometry" />
        </mxCell>
        <mxCell id="KtYd76TN2WNFIELzgT9k-104" value="" style="edgeStyle=orthogonalEdgeStyle;orthogonalLoop=1;jettySize=auto;html=1;rounded=1;strokeWidth=1;endArrow=classic;endFill=1;elbow=vertical;entryX=0.985;entryY=0.656;entryDx=0;entryDy=0;entryPerimeter=0;" edge="1" parent="1" source="KtYd76TN2WNFIELzgT9k-41" target="KtYd76TN2WNFIELzgT9k-75">
          <mxGeometry width="80" relative="1" as="geometry">
            <mxPoint x="402.5" y="861" as="sourcePoint" />
            <mxPoint x="370" y="770" as="targetPoint" />
            <Array as="points">
              <mxPoint x="390" y="840" />
              <mxPoint x="390" y="769" />
            </Array>
          </mxGeometry>
        </mxCell>
        <mxCell id="KtYd76TN2WNFIELzgT9k-105" value="Credentials" style="text;html=1;align=center;verticalAlign=middle;whiteSpace=wrap;rounded=0;" vertex="1" parent="1">
          <mxGeometry x="130" y="500" width="60" height="30" as="geometry" />
        </mxCell>
        <mxCell id="KtYd76TN2WNFIELzgT9k-106" value="1" style="ellipse;whiteSpace=wrap;html=1;aspect=fixed;" vertex="1" parent="1">
          <mxGeometry x="195" y="585" width="30" height="30" as="geometry" />
        </mxCell>
        <mxCell id="KtYd76TN2WNFIELzgT9k-107" value="2" style="ellipse;whiteSpace=wrap;html=1;aspect=fixed;" vertex="1" parent="1">
          <mxGeometry x="118" y="734" width="30" height="30" as="geometry" />
        </mxCell>
        <mxCell id="KtYd76TN2WNFIELzgT9k-109" value="4" style="ellipse;whiteSpace=wrap;html=1;aspect=fixed;" vertex="1" parent="1">
          <mxGeometry x="435" y="660" width="30" height="30" as="geometry" />
        </mxCell>
        <mxCell id="KtYd76TN2WNFIELzgT9k-110" value="5" style="ellipse;whiteSpace=wrap;html=1;aspect=fixed;" vertex="1" parent="1">
          <mxGeometry x="435" y="816" width="30" height="30" as="geometry" />
        </mxCell>
        <mxCell id="KtYd76TN2WNFIELzgT9k-111" value="6" style="ellipse;whiteSpace=wrap;html=1;aspect=fixed;" vertex="1" parent="1">
          <mxGeometry x="245" y="759" width="30" height="30" as="geometry" />
        </mxCell>
        <mxCell id="KtYd76TN2WNFIELzgT9k-116" value="" style="group" vertex="1" connectable="0" parent="1">
          <mxGeometry x="580" y="790" width="70" height="70" as="geometry" />
        </mxCell>
        <mxCell id="KtYd76TN2WNFIELzgT9k-41" value="&lt;font color=&quot;#000000&quot;&gt;LLM&lt;/font&gt;" style="fontColor=#0066CC;verticalAlign=top;verticalLabelPosition=bottom;labelPosition=center;align=center;html=1;outlineConnect=0;fillColor=#000000;strokeColor=#000000;gradientColor=none;gradientDirection=north;strokeWidth=2;shape=mxgraph.networks.virtual_server;" vertex="1" parent="KtYd76TN2WNFIELzgT9k-116">
          <mxGeometry width="70" height="70" as="geometry" />
        </mxCell>
        <mxCell id="KtYd76TN2WNFIELzgT9k-115" value="" style="sketch=0;points=[[0,0,0],[0.25,0,0],[0.5,0,0],[0.75,0,0],[1,0,0],[0,1,0],[0.25,1,0],[0.5,1,0],[0.75,1,0],[1,1,0],[0,0.25,0],[0,0.5,0],[0,0.75,0],[1,0.25,0],[1,0.5,0],[1,0.75,0]];outlineConnect=0;fontColor=#232F3E;fillColor=#1A1A1A;strokeColor=#ffffff;dashed=0;verticalLabelPosition=bottom;verticalAlign=top;align=center;html=1;fontSize=12;fontStyle=0;aspect=fixed;shape=mxgraph.aws4.resourceIcon;resIcon=mxgraph.aws4.augmented_ai;" vertex="1" parent="KtYd76TN2WNFIELzgT9k-116">
          <mxGeometry x="5.720000000000027" y="5.720000000000027" width="58.56" height="58.56" as="geometry" />
        </mxCell>
      </root>
    </mxGraphModel>
  </diagram>
</mxfile>
